# xmcd CD database file
#
# Track frame offsets:
#	150
#	22086
#	38089
#	61825
#	78251
#	99565
#	113739
#	144068
#	166215
#	191771
#	209472
#
# Disc length: 3119 seconds
#
# Revision: 0
# Processed by: cddbd v1.5.1PL0 Copyright (c) Steve Scherf et al.
# Submitted via: CDex 1.51
#
DISCID=8a0c2d0b
DTITLE=Annie Lennox - Medusa
DYEAR=1995
DGENRE=Rhythmic Soul
TTITLE0=no more "i love you's"
TTITLE1=take me to the river
TTITLE2=a whiter shade of pale
TTITLE3=don't let it bring you down
TTITLE4=train in vain
TTITLE5=i can't get next to you
TTITLE6=downtown lights
TTITLE7=thin line between love and hate
TTITLE8=waiting in vain
TTITLE9=something so right
TTITLE10=heaven
EXTD=YEAR: 1995
EXTT0=
EXTT1=
EXTT2=
EXTT3=
EXTT4=
EXTT5=
EXTT6=
EXTT7=
EXTT8=
EXTT9=
EXTT10=
PLAYORDER=
